<?xml version="1.0" encoding="UTF-8"?>
<svg version="1.1" xmlns="http://www.w3.org/2000/svg" width="808" height="256">
<path d="M0 0 C20.30628186 17.77590406 33.91472826 39.81311547 40.5703125 65.9453125 C40.89 67.19828125 41.2096875 68.45125 41.5390625 69.7421875 C45.74694373 88.39611516 45.29223743 109.43841317 40.5703125 127.9453125 C40.40402344 128.59822266 40.23773438 129.25113281 40.06640625 129.92382812 C31.51440244 162.45311668 10.12428153 190.90782298 -18.94726562 207.89990234 C-50.07577546 225.47095268 -85.39945456 229.4041152 -119.93774414 220.35302734 C-134.26231107 216.32543028 -147.45618598 209.76880853 -159.4296875 200.9453125 C-160.2546875 200.34332031 -161.0796875 199.74132812 -161.9296875 199.12109375 C-179.39768829 185.76815084 -192.64535433 169.06442734 -201.4296875 148.9453125 C-201.71183105 148.29981445 -201.99397461 147.65431641 -202.28466797 146.98925781 C-216.10352927 114.59595772 -215.19956651 78.67640627 -202.1796875 46.1953125 C-196.39187182 32.48515631 -188.48728246 20.85646613 -178.4296875 9.9453125 C-177.96723633 9.43371582 -177.50478516 8.92211914 -177.02832031 8.39501953 C-130.992047 -42.11032833 -50.90369905 -43.04717958 0 0 Z M-145.4296875 34.9453125 C-146.04457031 35.48542969 -146.65945312 36.02554688 -147.29296875 36.58203125 C-162.33780026 50.31260162 -170.51614525 72.65966507 -171.6328125 92.56640625 C-171.79147026 105.48379223 -170.11697098 117.27367992 -165.4921875 129.3828125 C-165.25161621 130.02806885 -165.01104492 130.6733252 -164.76318359 131.33813477 C-163.98144321 133.34741173 -163.98144321 133.34741173 -162.4296875 135.9453125 C-160.35455681 136.9516078 -160.35455681 136.9516078 -158.4296875 136.9453125 C-157.17743428 135.24713984 -157.17743428 135.24713984 -156.4296875 132.9453125 C-157.19113561 130.38109774 -157.19113561 130.38109774 -158.6171875 127.6953125 C-166.6230941 109.64921155 -166.68792712 88.29116783 -160.328125 69.73046875 C-159.13462684 66.73902337 -157.82803017 63.84617237 -156.4296875 60.9453125 C-156.01074219 60.03265625 -155.59179688 59.12 -155.16015625 58.1796875 C-151.19934748 50.18958335 -145.6702373 44.19484151 -139.4296875 37.9453125 C-138.77097656 37.275 -138.11226562 36.6046875 -137.43359375 35.9140625 C-120.94341046 20.3104482 -99.70257003 16.43257316 -77.8203125 16.65625 C-68.57684826 16.92651077 -60.12360447 18.83688694 -51.6484375 22.59375 C-48.64361639 24.14483045 -48.64361639 24.14483045 -46.0546875 23.7578125 C-44.23177083 23.04947917 -44.23177083 23.04947917 -43.4296875 20.9453125 C-49.8926258 13.50969118 -63.0222538 10.91426591 -72.4296875 9.9453125 C-100.86898016 8.00696908 -124.54324073 14.99354321 -145.4296875 34.9453125 Z M-33.4296875 24.9453125 C-36.37729664 27.67511801 -39.16834605 30.80316944 -39.66796875 34.8984375 C-39.84762819 40.45842433 -39.25561464 43.6159739 -35.4296875 47.9453125 C-31.54987213 51.06603356 -28.45065955 52.84489306 -23.4296875 52.9453125 C-19.14825478 52.00771192 -16.17075216 50.68637716 -13.0546875 47.5703125 C-10.0830722 42.77001086 -8.95411561 39.70901136 -9.890625 33.9375 C-11.05329409 29.64067945 -13.31684702 26.79458549 -16.8046875 24.1328125 C-22.95148912 21.35211653 -27.62836961 21.60298943 -33.4296875 24.9453125 Z M-115.6171875 70.0703125 C-122.4019333 77.9502338 -125.8255185 88.01362237 -125.63671875 98.36328125 C-124.70714655 109.95662507 -120.13485984 119.83714996 -111.6171875 127.8203125 C-103.36037541 134.46720563 -93.35945501 138.55327681 -82.65234375 138.19140625 C-71.26761559 136.93088275 -61.04670075 132.60922793 -53.09765625 124.20703125 C-45.18888162 113.48295512 -42.67120164 103.12579318 -43.4296875 89.9453125 C-45.18193466 78.61197077 -51.79812269 69.34806193 -60.8671875 62.6015625 C-79.38447582 50.63307127 -100.66266413 54.67021674 -115.6171875 70.0703125 Z M-10.4296875 56.9453125 C-12.07854581 60.99251017 -10.6496992 63.70871915 -9.1171875 67.6328125 C-1.93023645 86.14590417 -1.39408911 108.6163069 -9.30761719 126.98291016 C-12.84625589 134.88081989 -16.7660895 142.35276456 -22.4296875 148.9453125 C-23.19152344 149.91984375 -23.19152344 149.91984375 -23.96875 150.9140625 C-35.7104204 165.38247153 -55.04904525 174.77409913 -73.4296875 176.9453125 C-88.73194324 178.15170234 -102.81035893 176.6632396 -117.02734375 170.6171875 C-119.85519264 169.82630944 -121.63021756 170.16685027 -124.4296875 170.9453125 C-124.34244235 172.88256483 -124.34244235 172.88256483 -123.4296875 174.9453125 C-106.05767257 185.20003034 -82.44471428 186.54844036 -63.14453125 182.04296875 C-39.13651811 174.94911839 -19.86246355 160.62206453 -7.30419922 138.69873047 C3.64660543 118.40673123 6.1133014 93.77274628 -0.20703125 71.6171875 C-1.90263552 66.52495742 -3.92782834 61.69269279 -6.4296875 56.9453125 C-7.7496875 56.9453125 -9.0696875 56.9453125 -10.4296875 56.9453125 Z M-152.4296875 143.9453125 C-155.37729664 146.67511801 -158.16834605 149.80316944 -158.66796875 153.8984375 C-158.87655572 160.35365537 -157.34209077 163.60266784 -153.0546875 168.5234375 C-150.02380107 171.17546313 -146.36510249 171.6842251 -142.4296875 171.9453125 C-138.04366099 171.21430808 -135.19246815 169.70809315 -132.0546875 166.5703125 C-129.0830722 161.77001086 -127.95411561 158.70901136 -128.890625 152.9375 C-130.05329409 148.64067945 -132.31684702 145.79458549 -135.8046875 143.1328125 C-141.95148912 140.35211653 -146.62836961 140.60298943 -152.4296875 143.9453125 Z " fill="#000000" transform="translate(212.4296875,31.0546875)"/>
<path d="M0 0 C9.24 0 18.48 0 28 0 C28.33 14.85 28.66 29.7 29 45 C31.97 42.36 34.94 39.72 38 37 C47.69128147 31.99283791 59.35558606 31.5003316 69.87890625 34.2421875 C82.33823141 38.69358544 89.64052012 46.90312866 95.26171875 58.6328125 C102.6576919 77.05400957 101.29821914 98.94572011 93.71875 117.0625 C88.23985911 128.02028178 80.30417852 135.22187482 68.77734375 139.078125 C59.48046758 141.34706272 46.54732099 141.71777172 38 137 C34.43205576 134.21670739 31.17447071 131.22175007 28 128 C27.67 130.97 27.34 133.94 27 137 C18.09 137 9.18 137 0 137 C0 91.79 0 46.58 0 0 Z M33.625 63.25 C26.42326357 72.72596899 26.35840541 83.55822981 27 95 C28.24166596 102.86037687 31.63099419 109.03428704 37.5234375 114.3828125 C42.76971903 118.04241376 48.85986569 117.68509169 55 117 C60.48657292 115.27274556 63.84527266 111.68542345 67 107 C72.35458074 96.24933014 72.32584501 83.37590169 69 72 C66.85971104 66.13478505 64.20529844 62.47019896 59 59 C50.21872249 55.70702093 40.26420238 55.90063418 33.625 63.25 Z " fill="#000000" transform="translate(486,58)"/>
<path d="M0 0 C7.03131348 6.44319246 9.71956183 12.72678114 10.14476013 22.2381897 C10.154272 23.40304901 10.16378387 24.56790833 10.17358398 25.76806641 C10.180271 26.41600662 10.18695801 27.06394684 10.19384766 27.73152161 C10.20781392 29.12774468 10.21973414 30.52398945 10.22979546 31.92024612 C10.24631693 34.1314317 10.26955456 36.34245489 10.29469299 38.55355835 C10.36518982 44.83640363 10.42569502 51.11931111 10.47680664 57.40234375 C10.50861023 61.25432304 10.54987582 65.10610687 10.59700203 68.9579277 C10.6129978 70.42269763 10.62533057 71.88751237 10.63390923 73.35234451 C10.64607496 75.39867282 10.67022532 77.44454105 10.69702148 79.49072266 C10.71248268 81.23562485 10.71248268 81.23562485 10.72825623 83.01577759 C10.99244399 85.91702178 11.39367724 87.59549081 13 90 C13.66 90.33 14.32 90.66 15 91 C15 92.65 15 94.3 15 96 C5.1 96 -4.8 96 -15 96 C-15.99 93.03 -16.98 90.06 -18 87 C-18.72703125 87.68835938 -18.72703125 87.68835938 -19.46875 88.390625 C-28.23109719 96.41154281 -37.67567647 100.6627798 -49.80859375 100.24609375 C-59.3408869 99.17562233 -67.96279298 96.48166647 -74.59375 89.265625 C-81.17887656 80.61307499 -80.94011044 70.4037286 -80 60 C-78.49776991 52.74072044 -74.90394453 47.43931214 -69 43 C-60.42688201 37.46067904 -50.89894251 35.68328501 -40.93359375 34.2578125 C-40.04720215 34.13100098 -39.16081055 34.00418945 -38.24755859 33.87353516 C-36.49300013 33.62944765 -34.7367952 33.39684542 -32.97900391 33.17724609 C-27.95493453 32.50030007 -22.76546022 31.76546022 -19 28 C-18.71203635 25.07236961 -18.50679135 22.8484185 -19 20 C-22.60879046 15.97877634 -25.8436395 15.24233094 -31.03515625 14.84375 C-36.40147437 14.6228381 -41.37094054 15.07007766 -46 18 C-48.22421145 21.37219156 -49.01806492 24.07225968 -50 28 C-58.91 28 -67.82 28 -77 28 C-75.99462719 16.94089911 -74.44549552 8.72948381 -66.1875 1 C-49.0351681 -12.37686605 -17.71941709 -12.092725 0 0 Z M-22.5 49.25 C-25.68396155 50.35056549 -28.8370585 51.20467293 -32.1328125 51.87890625 C-42.44221944 53.64595313 -42.44221944 53.64595313 -50.9609375 59.23046875 C-52.99772634 62.69913546 -53.36922375 66.03794514 -53 70 C-51.82959847 73.5112046 -50.68187516 75.36074204 -48 77.875 C-42.41035897 79.97111539 -36.86225203 79.97140676 -31.203125 78.05078125 C-25.31081643 75.28767205 -21.42875604 72.51021718 -18.9140625 66.33203125 C-17.87126942 62.53073853 -17.77668823 59.02722104 -17.875 55.125 C-17.88402344 54.43664062 -17.89304687 53.74828125 -17.90234375 53.0390625 C-17.92567487 51.35922162 -17.96153674 49.67956254 -18 48 C-19.46246255 47.94394393 -19.46246255 47.94394393 -22.5 49.25 Z " fill="#000000" transform="translate(793,99)"/>
<path d="M0 0 C11.78041469 9.1365659 18.48385449 22.93458318 20.484375 37.53515625 C21.84742853 55.63570533 19.00183026 71.86175647 7.44921875 86.3359375 C-0.75525736 95.2601045 -11.93569257 100.38764056 -24.04638672 101.12451172 C-40.34705154 101.69690148 -55.94674488 100.38902715 -68.6875 89 C-80.43566167 76.23272069 -84.41537556 60.05053931 -84.28125 43.1171875 C-83.56351682 28.09503212 -77.51426196 13.74911661 -67 3 C-49.67987902 -11.75313237 -18.72784001 -12.54613022 0 0 Z M-49.125 23.0625 C-56.20156383 34.14911667 -56.32014274 46.4525391 -54.5625 59.1640625 C-52.76368507 66.4267778 -48.30708205 71.61582457 -42.3125 75.9375 C-36.33321229 78.6847403 -30.10956613 78.92651955 -23.875 76.8125 C-17.63959736 74.17162359 -13.57387913 70.37063106 -10.8125 64.2265625 C-6.61064313 52.71185858 -6.85291035 40.48665587 -11 29 C-13.77501099 23.20792099 -16.91290522 19.14208491 -22.9296875 16.6484375 C-33.05613473 13.4767578 -41.43338353 15.59710755 -49.125 23.0625 Z " fill="#000000" transform="translate(375,98)"/>
<path d="M0 0 C8.91 0 17.82 0 27 0 C27 9.24 27 18.48 27 28 C32.61 28 38.22 28 44 28 C44 34.6 44 41.2 44 48 C38.39 48 32.78 48 27 48 C27.10799645 55.52780367 27.22006224 63.05552548 27.33933926 70.58315849 C27.39455772 74.07835597 27.44797596 77.57356184 27.49731445 81.06884766 C27.55408436 85.08505496 27.61862219 89.10110445 27.68359375 93.1171875 C27.70030624 94.37554413 27.71701874 95.63390076 27.73423767 96.9303894 C27.7641555 98.67196823 27.7641555 98.67196823 27.79467773 100.44873047 C27.81022202 101.47465302 27.8257663 102.50057556 27.84178162 103.55758667 C27.8416631 106.00704188 27.8416631 106.00704188 29 108 C32.16245541 109.0541518 34.86948218 109.31275672 38.1875 109.5625 C40.105625 109.706875 42.02375 109.85125 44 110 C44 116.6 44 123.2 44 130 C39.523734 131.49208867 35.12707925 131.22530176 30.4375 131.25 C29.00954102 131.2809375 29.00954102 131.2809375 27.55273438 131.3125 C18.35342273 131.36259836 10.4818603 129.89188492 3.375 123.79296875 C0.00351657 119.39663098 -0.24697521 114.43633176 -0.22705078 109.07666016 C-0.22734283 108.4125412 -0.22763489 107.74842224 -0.22793579 107.06417847 C-0.22655261 104.88900263 -0.21103988 102.71417782 -0.1953125 100.5390625 C-0.19157876 99.02306302 -0.18873349 97.50706111 -0.18673706 95.99105835 C-0.17912902 92.01590218 -0.1595051 88.04089394 -0.1373291 84.0657959 C-0.11680948 80.0035197 -0.1077223 75.94121942 -0.09765625 71.87890625 C-0.07625629 63.91919564 -0.04109748 55.95963331 0 48 C-4.62 48 -9.24 48 -14 48 C-14 41.4 -14 34.8 -14 28 C-9.38 28 -4.76 28 0 28 C0 18.76 0 9.52 0 0 Z " fill="#000000" transform="translate(660,66)"/>
<path d="M0 0 C0 9.24 0 18.48 0 28 C-2.31 28.103125 -4.62 28.20625 -7 28.3125 C-14.3228238 28.75413665 -19.8265929 29.60231463 -25.8125 34.125 C-31.58699768 41.71433981 -31.46360605 50.36368677 -31.51171875 59.56640625 C-31.52966995 60.84104233 -31.54762115 62.11567841 -31.56611633 63.42893982 C-31.61087034 66.78755069 -31.64329568 70.14580479 -31.66955566 73.50457764 C-31.69954563 76.94393751 -31.74585481 80.38307701 -31.79101562 83.82226562 C-31.87815477 90.54819195 -31.9384068 97.27359783 -32 104 C-41.24 104 -50.48 104 -60 104 C-60 70.34 -60 36.68 -60 2 C-51.42 2 -42.84 2 -34 2 C-33.67 6.95 -33.34 11.9 -33 17 C-32.154375 15.80375 -31.30875 14.6075 -30.4375 13.375 C-21.81161721 1.98802855 -14.63968009 0 0 0 Z " fill="#000000" transform="translate(473,91)"/>
<path d="M0 0 C9.24 0 18.48 0 28 0 C28 33.66 28 67.32 28 102 C18.76 102 9.52 102 0 102 C0 68.34 0 34.68 0 0 Z " fill="#000000" transform="translate(604,93)"/>
<path d="M0 0 C9.24 0 18.48 0 28 0 C28 8.25 28 16.5 28 25 C18.76 25 9.52 25 0 25 C0 16.75 0 8.5 0 0 Z " fill="#000000" transform="translate(604,57)"/>
</svg>
