<?xml version="1.0" encoding="UTF-8"?>
<svg version="1.1" xmlns="http://www.w3.org/2000/svg" width="256" height="255">
<path d="M0 0 C0.67808716 0.00087616 1.35617432 0.00175232 2.05480957 0.00265503 C38.08677083 0.15551213 68.97102617 14.71134612 94.18164062 40.06860352 C119.36669708 66.27657388 128.94892884 99.85212999 128.28125 135.45703125 C127.35825612 163.96600472 115.6355911 192.3324922 96.078125 213.12109375 C93.95341944 215.3610531 93.95341944 215.3610531 92.05078125 217.890625 C88.32348024 222.40598393 83.59642746 225.78460581 79 229.375 C78.12988281 230.06078125 77.25976562 230.7465625 76.36328125 231.453125 C62.79494274 241.7561384 48.27091761 247.69914913 32 252.375 C30.75476563 252.73851562 29.50953125 253.10203125 28.2265625 253.4765625 C8.40442056 258.15861369 -15.55361833 257.13635696 -35 251.375 C-36.88525391 250.86646484 -36.88525391 250.86646484 -38.80859375 250.34765625 C-54.82680524 245.58456902 -69.32756142 237.1751768 -82 226.375 C-82.89074219 225.62347656 -83.78148437 224.87195313 -84.69921875 224.09765625 C-110.14181757 201.92791853 -125.08236387 170.99885327 -127.59033203 137.43066406 C-129.71465997 103.42842426 -119.65836953 70.10899014 -97 44.375 C-96.29101562 43.53324219 -95.58203125 42.69148438 -94.8515625 41.82421875 C-71.20899194 14.3834735 -35.81757958 -0.05106647 0 0 Z " fill="#000000" transform="translate(128,-0.375)"/>
<path d="M0 0 C7.77020711 5.9440294 12.46759926 13.71920404 15.54296875 22.9453125 C16.76499575 36.13309082 15.98728702 48.45369201 7.2890625 59.0390625 C-1.04706099 68.13979686 -10.41630652 73.97772291 -22.9296875 75.18359375 C-33.98039998 75.50028083 -43.96859189 72.07433699 -52.45703125 64.9453125 C-61.98645349 55.78959309 -66.44046586 46.29015677 -66.76953125 33.0703125 C-66.52732645 19.72055366 -61.35463171 10.01900985 -51.80859375 0.8046875 C-36.06536292 -11.64344851 -16.19430123 -10.91801973 0 0 Z " fill="#FDFDFD" transform="translate(153.45703125,94.0546875)"/>
<path d="M0 0 C-0.33 1.65 -0.66 3.3 -1 5 C-7.29519814 4.29339613 -12.61752587 2.41469989 -18.5 0.15625 C-37.34286167 -6.06862394 -59.76293053 -2.71801148 -77.25 5.6875 C-84.26113638 9.25620883 -90.20553317 13.66479108 -96 19 C-96.63035156 19.53882812 -97.26070312 20.07765625 -97.91015625 20.6328125 C-110.23067671 31.80266932 -118.93131749 50.51909621 -120.2355957 66.97192383 C-120.86843746 81.99022786 -120.80528564 96.60516569 -113.84375 110.26953125 C-112.7225166 112.5690979 -112.85994145 114.47894614 -113 117 C-115.475 117.495 -115.475 117.495 -118 118 C-128.96562325 101.01227217 -130.73506576 77.72284624 -126.97436523 58.12890625 C-123.78704371 44.24445467 -116.83778421 32.06595439 -108 21 C-107.5565625 20.39285156 -107.113125 19.78570312 -106.65625 19.16015625 C-96.55981285 6.0778825 -78.93291621 -4.16109084 -63 -8 C-62.1853125 -8.20238281 -61.370625 -8.40476563 -60.53125 -8.61328125 C-40.85587598 -12.67547224 -17.1126214 -11.40841426 0 0 Z " fill="#F4F4F4" transform="translate(169,50)"/>
<path d="M0 0 C2.3671875 0.01953125 2.3671875 0.01953125 5 1 C6.35163772 3.30152136 7.24405875 5.20912676 8.125 7.6875 C8.37652832 8.36522461 8.62805664 9.04294922 8.88720703 9.74121094 C16.70856625 31.52747272 16.18558265 55.10267406 6.78515625 76.33984375 C-3.61009112 98.35434227 -22.01500463 115.42265931 -44.98242188 123.71582031 C-66.62395968 130.80979872 -91.32842718 130.0215785 -112 120 C-112.66 119.34 -113.32 118.68 -114 118 C-113.625 115.375 -113.625 115.375 -113 113 C-108.58538849 113.45047056 -105.12092207 114.37953672 -101.0859375 116.16796875 C-92.26519302 119.68635559 -83.70429561 120.28018188 -74.3125 120.3125 C-73.35085937 120.31789795 -72.38921875 120.3232959 -71.3984375 120.32885742 C-51.30202965 120.13071897 -31.51580361 111.95054646 -17 98 C-0.37852405 80.0743055 6.87984281 58.71441749 6.140625 34.48193359 C5.62317174 25.34924286 3.69988094 16.40087254 -0.23046875 8.11328125 C-1.14085894 5.61317417 -1.20249207 3.64139655 -1 1 C-0.67 0.67 -0.34 0.34 0 0 Z " fill="#F4F4F4" transform="translate(202,87)"/>
<path d="M0 0 C4.85857844 2.29678253 7.63468979 5.17840611 10 10 C10.9021605 15.64610559 10.24179585 20.19319926 7 25 C1.82726835 29.6680749 -1.39640527 30.36791117 -8.23828125 30.26953125 C-12.21532391 29.88138989 -14.14656864 28.78383547 -17 26 C-19.89549008 22.08932285 -21.35677174 18.400417 -21.1875 13.5 C-20.30590876 8.09790902 -16.95686589 4.58219729 -13 1 C-9.04877519 -0.97561241 -4.30659535 -0.43248694 0 0 Z " fill="#FBFBFB" transform="translate(74,172)"/>
<path d="M0 0 C5.36787898 1.88869816 8.45991584 4.91983169 11 10 C11.59106487 15.68331608 11.27243416 20.14777003 8 25 C2.82726835 29.6680749 -0.39640527 30.36791117 -7.23828125 30.26953125 C-11.21532391 29.88138989 -13.14656864 28.78383547 -16 26 C-18.89549008 22.08932285 -20.35677174 18.400417 -20.1875 13.5 C-19.30590876 8.09790902 -15.95686589 4.58219729 -12 1 C-8.30506957 -0.84746521 -4.04115396 -0.3419438 0 0 Z " fill="#FBFBFB" transform="translate(192,53)"/>
</svg>
